<?xml version="1.0" standalone="no"?><!-- Generator: Gravit.io --><svg xmlns="http://www.w3.org/2000/svg" xmlns:xlink="http://www.w3.org/1999/xlink" style="isolation:isolate" viewBox="0 0 1024 1024" width="1024" height="1024"><defs><clipPath id="_clipPath_quNq43B2eCw2bqw3Zow5cXyI3l0qVyOy"><rect width="1024" height="1024"/></clipPath></defs><g clip-path="url(#_clipPath_quNq43B2eCw2bqw3Zow5cXyI3l0qVyOy)"><path d=" M 0 512 C 0 229.42 229.42 0 512 0 C 794.58 0 1024 229.42 1024 512 C 1024 794.58 794.58 1024 512 1024 C 229.42 1024 0 794.58 0 512 Z " fill="rgb(9,87,217)"/><clipPath id="_clipPath_gFOr7B4THObQtcZuQu7AJbKeYrKgWCkV"><path d=" M 0 512 C 0 229.42 229.42 0 512 0 C 794.58 0 1024 229.42 1024 512 C 1024 794.58 794.58 1024 512 1024 C 229.42 1024 0 794.58 0 512 Z " fill="rgb(9,87,217)"/></clipPath><g clip-path="url(#_clipPath_gFOr7B4THObQtcZuQu7AJbKeYrKgWCkV)"><path d=" M 321.7 694 L 321.7 694 Q 307.9 694 289 684.1 L 289 684.1 L 289 684.1 Q 270.1 674.2 256 660.4 L 256 660.4 L 256 660.4 Q 241.9 646.6 241.9 637.6 L 241.9 637.6 L 241.9 637.6 Q 241.3 628 247.6 597.1 L 247.6 597.1 L 247.6 597.1 Q 253.9 566.2 255.7 557.2 L 255.7 557.2 L 255.7 557.2 Q 258.1 545.2 264.7 513.1 L 264.7 513.1 L 264.7 513.1 Q 271.3 481 275.5 453.4 L 275.5 453.4 L 280.3 425.2 L 280.3 425.2 Q 291.7 358 301.6 316 L 301.6 316 L 301.6 316 Q 311.5 274 321.7 274 L 321.7 274 L 321.7 274 Q 333.1 274 352.6 284.2 L 352.6 284.2 L 352.6 284.2 Q 372.1 294.4 386.8 308.2 L 386.8 308.2 L 386.8 308.2 Q 401.5 322 401.5 332.2 L 401.5 332.2 L 401.5 332.2 Q 401.5 337.6 390.1 380.2 L 390.1 380.2 L 390.1 380.2 Q 369.1 455.8 358.9 512.2 L 358.9 512.2 L 358.9 512.2 Q 352.9 547.6 346.3 605.2 L 346.3 605.2 L 346.3 605.2 Q 340.3 654.4 335.8 674.2 L 335.8 674.2 L 335.8 674.2 Q 331.3 694 321.7 694 L 321.7 694 Z  M 725.5 567.4 L 725.5 567.4 Q 751.9 576.4 764.8 592.3 L 764.8 592.3 L 764.8 592.3 Q 777.7 608.2 777.7 628.6 L 777.7 628.6 L 777.7 628.6 Q 777.7 643 757.3 658.3 L 757.3 658.3 L 757.3 658.3 Q 736.9 673.6 708.7 683.8 L 708.7 683.8 L 708.7 683.8 Q 680.5 694 660.7 694 L 660.7 694 L 660.7 694 Q 646.9 694 628.9 683.2 L 628.9 683.2 L 628.9 683.2 Q 610.9 672.4 598 658.3 L 598 658.3 L 598 658.3 Q 585.1 644.2 585.1 636.4 L 585.1 636.4 L 585.1 636.4 Q 585.1 630.4 598.3 589.6 L 598.3 589.6 L 598.3 589.6 Q 621.7 518.2 621.7 499.6 L 621.7 499.6 L 621.7 499.6 Q 621.7 492.4 618.1 492.4 L 618.1 492.4 L 618.1 492.4 Q 594.1 492.4 528.7 576.4 L 528.7 576.4 L 528.7 576.4 Q 526.3 586 523.6 600.4 L 523.6 600.4 L 523.6 600.4 Q 520.9 614.8 519.7 620.8 L 519.7 620.8 L 519.7 620.8 Q 513.1 656.2 507.4 675.1 L 507.4 675.1 L 507.4 675.1 Q 501.7 694 492.7 694 L 492.7 694 L 492.7 694 Q 477.1 694 457.6 683.5 L 457.6 683.5 L 457.6 683.5 Q 438.1 673 424 658.9 L 424 658.9 L 424 658.9 Q 409.9 644.8 409.9 635.2 L 409.9 635.2 L 409.9 635.2 Q 409.9 624.4 417.7 603.4 L 417.7 603.4 L 417.7 603.4 Q 425.5 582.4 441.1 545.8 L 441.1 545.8 L 441.1 545.8 Q 453.1 517.6 459.1 501.7 L 459.1 501.7 L 459.1 501.7 Q 465.1 485.8 465.1 479.2 L 465.1 479.2 L 465.1 479.2 Q 465.1 474.4 459.4 468.7 L 459.4 468.7 L 459.4 468.7 Q 453.7 463 442.3 454.6 L 442.3 454.6 L 442.3 454.6 Q 429.1 444.4 422.8 438.4 L 422.8 438.4 L 422.8 438.4 Q 416.5 432.4 416.5 425.8 L 416.5 425.8 L 416.5 425.8 Q 416.5 413.2 428.2 396.4 L 428.2 396.4 L 428.2 396.4 Q 439.9 379.6 455.8 367.6 L 455.8 367.6 L 455.8 367.6 Q 471.7 355.6 483.1 355.6 L 483.1 355.6 L 483.1 355.6 Q 495.7 355.6 512.2 367 L 512.2 367 L 512.2 367 Q 528.7 378.4 541 393.1 L 541 393.1 L 541 393.1 Q 553.3 407.8 553.3 415.6 L 553.3 415.6 L 553.3 415.6 Q 553.3 430 550 451 L 550 451 L 550 451 Q 546.7 472 541.3 492.4 L 541.3 492.4 L 541.3 492.4 Q 585.1 434.8 613.9 403.3 L 613.9 403.3 L 613.9 403.3 Q 642.7 371.8 658.9 371.8 L 658.9 371.8 L 658.9 371.8 Q 670.3 371.8 686.5 383.2 L 686.5 383.2 L 686.5 383.2 Q 702.7 394.6 714.4 409.3 L 714.4 409.3 L 714.4 409.3 Q 726.1 424 726.1 431.8 L 726.1 431.8 L 726.1 431.8 Q 725.5 442 717.7 466.6 L 717.7 466.6 L 717.7 466.6 Q 709.9 491.2 695.5 532 L 695.5 532 L 695.5 532 Q 676.3 584.8 670.9 603.4 L 670.9 603.4 L 670.9 603.4 Q 689.5 593.8 700 586.9 L 700 586.9 L 700 586.9 Q 710.5 580 725.5 567.4 L 725.5 567.4 Z " fill-rule="evenodd" fill="rgb(255,255,255)"/></g></g></svg>